<?xml version="1.0" encoding="UTF-8" standalone="no"?><svg xmlns="http://www.w3.org/2000/svg" xmlns:xlink="http://www.w3.org/1999/xlink" contentScriptType="application/ecmascript" contentStyleType="text/css" height="661px" preserveAspectRatio="none" style="width:513px;height:661px;" version="1.1" viewBox="0 0 513 661" width="513px" zoomAndPan="magnify"><defs><filter height="300%" id="f1difee8azoxdl" width="300%" x="-1" y="-1"><feGaussianBlur result="blurOut" stdDeviation="2.0"/><feColorMatrix in="blurOut" result="blurOut2" type="matrix" values="0 0 0 0 0 0 0 0 0 0 0 0 0 0 0 0 0 0 .4 0"/><feOffset dx="4.0" dy="4.0" in="blurOut2" result="blurOut3"/><feBlend in="SourceGraphic" in2="blurOut3" mode="normal"/></filter></defs><g><text fill="#000000" font-family="sans-serif" font-size="18" lengthAdjust="spacingAndGlyphs" textLength="201" x="149.5" y="16.708">PISPOTPValidateModel</text><ellipse cx="73" cy="36.9531" fill="#000000" filter="url(#f1difee8azoxdl)" rx="10" ry="10" style="stroke:none;stroke-width:1.0;"/><g id="outboundServer"><rect fill="#FEFECE" filter="url(#f1difee8azoxdl)" height="50" rx="12.5" ry="12.5" style="stroke:#A80036;stroke-width:1.5;" width="132" x="7" y="123.9531"/><line style="stroke:#A80036;stroke-width:1.5;" x1="7" x2="139" y1="150.25" y2="150.25"/><text fill="#000000" font-family="sans-serif" font-size="14" lengthAdjust="spacingAndGlyphs" textLength="112" x="17" y="141.9482">outboundServer</text></g><g id="start"><rect fill="#FEFECE" filter="url(#f1difee8azoxdl)" height="50" rx="12.5" ry="12.5" style="stroke:#A80036;stroke-width:1.5;" width="51" x="47.5" y="250.9531"/><line style="stroke:#A80036;stroke-width:1.5;" x1="47.5" x2="98.5" y1="277.25" y2="277.25"/><text fill="#000000" font-family="sans-serif" font-size="14" lengthAdjust="spacingAndGlyphs" textLength="31" x="57.5" y="268.9482">start</text></g><g id="requestAction"><rect fill="#FEFECE" filter="url(#f1difee8azoxdl)" height="50" rx="12.5" ry="12.5" style="stroke:#A80036;stroke-width:1.5;" width="117" x="14.5" y="361.9531"/><line style="stroke:#A80036;stroke-width:1.5;" x1="14.5" x2="131.5" y1="388.25" y2="388.25"/><text fill="#000000" font-family="sans-serif" font-size="14" lengthAdjust="spacingAndGlyphs" textLength="97" x="24.5" y="379.9482">requestAction</text></g><g id="succeeded"><rect fill="#FEFECE" filter="url(#f1difee8azoxdl)" height="50" rx="12.5" ry="12.5" style="stroke:#A80036;stroke-width:1.5;" width="98" x="24" y="518.9531"/><line style="stroke:#A80036;stroke-width:1.5;" x1="24" x2="122" y1="545.25" y2="545.25"/><text fill="#000000" font-family="sans-serif" font-size="14" lengthAdjust="spacingAndGlyphs" textLength="78" x="34" y="536.9482">succeeded</text></g><ellipse cx="73" cy="639.9531" fill="none" filter="url(#f1difee8azoxdl)" rx="10" ry="10" style="stroke:#000000;stroke-width:1.0;"/><ellipse cx="73.5" cy="640.4531" fill="#000000" rx="6" ry="6" style="stroke:none;stroke-width:1.0;"/><!--MD5=[a6fb357e1d1a6671ee869b475af11b0f]
link *start to outboundServer--><path d="M73,47.289 C73,63.299 73,94.7165 73,118.4102 " fill="none" id="*start-to-outboundServer" style="stroke:#A80036;stroke-width:1.0;"/><polygon fill="#A80036" points="73,123.6435,77,114.6435,73,118.6435,69,114.6435,73,123.6435" style="stroke:#A80036;stroke-width:1.0;"/><text fill="#000000" font-family="monospace" font-size="13" lengthAdjust="spacingAndGlyphs" textLength="288" x="74" y="90.02">PATCH /consentRequests/{ID}/validate</text><!--MD5=[1893bbff8f93278466bda215cba64e1f]
link outboundServer to start--><path d="M73,174.0442 C73,194.6566 73,223.9178 73,245.8015 " fill="none" id="outboundServer-to-start" style="stroke:#A80036;stroke-width:1.0;"/><polygon fill="#A80036" points="73,250.9141,77,241.9141,73,245.9141,69,241.9141,73,250.9141" style="stroke:#A80036;stroke-width:1.0;"/><text fill="#000000" font-family="sans-serif" font-size="13" lengthAdjust="spacingAndGlyphs" textLength="184" x="74" y="217.02">on creation of state machine</text><!--MD5=[e25e3e4567ed944aec27e43edbd991d5]
link start to requestAction--><path d="M73,301.1407 C73,317.6035 73,339.1992 73,356.6074 " fill="none" id="start-to-requestAction" style="stroke:#A80036;stroke-width:1.0;"/><polygon fill="#A80036" points="73,361.8652,77,352.8652,73,356.8652,69,352.8652,73,361.8652" style="stroke:#A80036;stroke-width:1.0;"/><!--MD5=[bb84bef6082709529f4250b1428e0783]
link requestAction to succeeded--><path d="M73,412.1779 C73,439.7591 73,483.954 73,513.4598 " fill="none" id="requestAction-to-succeeded" style="stroke:#A80036;stroke-width:1.0;"/><polygon fill="#A80036" points="73,518.7909,77,509.7909,73,513.7909,69,509.7909,73,518.7909" style="stroke:#A80036;stroke-width:1.0;"/><text fill="#000000" font-family="sans-serif" font-size="13" lengthAdjust="spacingAndGlyphs" textLength="0" x="291.5" y="455.02"/><text fill="#000000" font-family="sans-serif" font-size="13" lengthAdjust="spacingAndGlyphs" textLength="21" x="165" y="470.1528">call</text><text fill="#000000" font-family="monospace" font-size="13" lengthAdjust="spacingAndGlyphs" textLength="224" x="190" y="470.1528">PATCH /consentRequests/{ID}/</text><text fill="#000000" font-family="sans-serif" font-size="13" lengthAdjust="spacingAndGlyphs" textLength="46" x="74" y="485.2856">wait for</text><text fill="#000000" font-family="monospace" font-size="13" lengthAdjust="spacingAndGlyphs" textLength="112" x="124" y="485.2856">POST /CONSENTS</text><text fill="#000000" font-family="sans-serif" font-size="13" lengthAdjust="spacingAndGlyphs" textLength="13" x="240" y="485.2856">or</text><text fill="#000000" font-family="monospace" font-size="13" lengthAdjust="spacingAndGlyphs" textLength="248" x="257" y="485.2856">PUT /consentRequests/{ID}/error</text><!--MD5=[1d1572a816dbbc231dd24c7ad789af81]
link succeeded to *end--><path d="M73,569.176 C73,586.7897 73,609.7305 73,624.6459 " fill="none" id="succeeded-to-*end" style="stroke:#A80036;stroke-width:1.0;"/><polygon fill="#A80036" points="73,629.7533,77,620.7533,73,624.7533,69,620.7533,73,629.7533" style="stroke:#A80036;stroke-width:1.0;"/><!--MD5=[85bbc325dafc7b12f20232c1c620f533]
@startuml
title PISPOTPValidateModel

[*] - -> outboundServer: ""PATCH /consentRequests/{ID}/validate""
outboundServer - -> start: on creation of state machine
start - -> requestAction
requestAction - -> succeeded:\ncall ""PATCH /consentRequests/{ID}/""\nwait for ""POST /CONSENTS"" or ""PUT /consentRequests/{ID}/error""

succeeded - -> [*]
@enduml

PlantUML version 1.2020.22(Sun Dec 06 09:36:27 UTC 2020)
(GPL source distribution)
Java Runtime: OpenJDK Runtime Environment
JVM: OpenJDK 64-Bit Server VM
Default Encoding: UTF-8
Language: en
Country: US
--></g></svg>