<?xml version="1.0" encoding="UTF-8" standalone="no"?><svg xmlns="http://www.w3.org/2000/svg" xmlns:xlink="http://www.w3.org/1999/xlink" contentScriptType="application/ecmascript" contentStyleType="text/css" height="472px" preserveAspectRatio="none" style="width:641px;height:472px;" version="1.1" viewBox="0 0 641 472" width="641px" zoomAndPan="magnify"><defs><filter height="300%" id="fai4db9mj6p4j" width="300%" x="-1" y="-1"><feGaussianBlur result="blurOut" stdDeviation="2.0"/><feColorMatrix in="blurOut" result="blurOut2" type="matrix" values="0 0 0 0 0 0 0 0 0 0 0 0 0 0 0 0 0 0 .4 0"/><feOffset dx="4.0" dy="4.0" in="blurOut2" result="blurOut3"/><feBlend in="SourceGraphic" in2="blurOut3" mode="normal"/></filter></defs><g><text fill="#000000" font-family="sans-serif" font-size="18" lengthAdjust="spacing" textLength="202" x="213.25" y="16.708">PISPOTPValidateModel</text><ellipse cx="199.5" cy="36.9531" fill="#000000" filter="url(#fai4db9mj6p4j)" rx="10" ry="10" style="stroke:none;stroke-width:1.0;"/><g id="outboundServer"><rect fill="#FEFECE" filter="url(#fai4db9mj6p4j)" height="50" rx="12.5" ry="12.5" style="stroke:#A80036;stroke-width:1.5;" width="136" x="131.5" y="123.9531"/><line style="stroke:#A80036;stroke-width:1.5;" x1="131.5" x2="267.5" y1="150.25" y2="150.25"/><text fill="#000000" font-family="sans-serif" font-size="14" lengthAdjust="spacing" textLength="116" x="141.5" y="141.9482">outboundServer</text></g><g id="start"><rect fill="#FEFECE" filter="url(#fai4db9mj6p4j)" height="50.2656" rx="12.5" ry="12.5" style="stroke:#A80036;stroke-width:1.5;" width="90" x="154.5" y="250.9531"/><line style="stroke:#A80036;stroke-width:1.5;" x1="154.5" x2="244.5" y1="277.25" y2="277.25"/><text fill="#000000" font-family="sans-serif" font-size="14" lengthAdjust="spacing" textLength="35" x="182" y="268.9482">start</text><text fill="#000000" font-family="sans-serif" font-size="12" lengthAdjust="spacing" textLength="70" x="159.5" y="293.3887">validateOTP</text></g><g id="OTPIsValid"><rect fill="#FEFECE" filter="url(#fai4db9mj6p4j)" height="50" rx="12.5" ry="12.5" style="stroke:#A80036;stroke-width:1.5;" width="95" x="7" y="408.9531"/><line style="stroke:#A80036;stroke-width:1.5;" x1="7" x2="102" y1="435.25" y2="435.25"/><text fill="#000000" font-family="sans-serif" font-size="14" lengthAdjust="spacing" textLength="75" x="17" y="426.9482">OTPIsValid</text></g><g id="errored"><rect fill="#FEFECE" filter="url(#fai4db9mj6p4j)" height="50" rx="12.5" ry="12.5" style="stroke:#A80036;stroke-width:1.5;" width="74" x="308.5" y="408.9531"/><line style="stroke:#A80036;stroke-width:1.5;" x1="308.5" x2="382.5" y1="435.25" y2="435.25"/><text fill="#000000" font-family="sans-serif" font-size="14" lengthAdjust="spacing" textLength="54" x="318.5" y="426.9482">errored</text></g><!--MD5=[a6fb357e1d1a6671ee869b475af11b0f]
link *start to outboundServer--><path d="M199.5,46.9551 C199.5,62.4111 199.5,94.6381 199.5,118.5531 " fill="none" id="*start-to-outboundServer" style="stroke:#A80036;stroke-width:1.0;"/><polygon fill="#A80036" points="199.5,123.8261,203.5,114.8261,199.5,118.8261,195.5,114.8261,199.5,123.8261" style="stroke:#A80036;stroke-width:1.0;"/><text fill="#000000" font-family="monospace" font-size="13" lengthAdjust="spacing" textLength="288" x="200.5" y="89.9911">PATCH /consentRequests/{ID}/validate</text><!--MD5=[1893bbff8f93278466bda215cba64e1f]
link outboundServer to start--><path d="M199.5,174.0541 C199.5,194.5461 199.5,224.0291 199.5,245.8371 " fill="none" id="outboundServer-to-start" style="stroke:#A80036;stroke-width:1.0;"/><polygon fill="#A80036" points="199.5,250.9261,203.5,241.9261,199.5,245.9261,195.5,241.9261,199.5,250.9261" style="stroke:#A80036;stroke-width:1.0;"/><text fill="#000000" font-family="sans-serif" font-size="13" lengthAdjust="spacing" textLength="165" x="200.5" y="217.02">creation of state machine</text><!--MD5=[e5c6d1dfc45a701b753fd7a365bc09b3]
link start to OTPIsValid--><path d="M154.291,293.4481 C110.767,309.3291 51.5,330.9531 51.5,330.9531 C51.5,330.9531 51.5,378.9531 51.5,378.9531 C51.5,378.9531 52.1696,391.006 52.8761,403.7232 " fill="none" id="start-to-OTPIsValid" style="stroke:#A80036;stroke-width:1.0;"/><polygon fill="#A80036" points="53.1579,408.7961,56.6524,399.588,52.8805,403.8038,48.6647,400.0319,53.1579,408.7961" style="stroke:#A80036;stroke-width:1.0;"/><text fill="#000000" font-family="sans-serif" font-size="13" lengthAdjust="spacing" textLength="0" x="179" y="344.02"/><text fill="#000000" font-family="sans-serif" font-size="13" lengthAdjust="spacing" textLength="21" x="52.5" y="359.62">call</text><text fill="#000000" font-family="monospace" font-size="13" lengthAdjust="spacing" textLength="224" x="77.5" y="359.1239">PATCH /consentRequests/{ID}/</text><text fill="#000000" font-family="sans-serif" font-size="13" lengthAdjust="spacing" textLength="55" x="91.5" y="375.22">recieved</text><text fill="#000000" font-family="monospace" font-size="13" lengthAdjust="spacing" textLength="112" x="150.5" y="374.724">POST /CONSENTS</text><!--MD5=[64fa023dae12807058edec3fa5d67425]
link start to errored--><path d="M244.568,299.6971 C273.81,314.4551 306.5,330.9531 306.5,330.9531 C306.5,330.9531 322.921,373.8997 334.452,404.0585 " fill="none" id="start-to-errored" style="stroke:#A80036;stroke-width:1.0;"/><polygon fill="#A80036" points="336.258,408.7805,336.7795,398.9455,334.4721,404.1104,329.3072,401.803,336.258,408.7805" style="stroke:#A80036;stroke-width:1.0;"/><text fill="#000000" font-family="sans-serif" font-size="13" lengthAdjust="spacing" textLength="0" x="482" y="344.02"/><text fill="#000000" font-family="sans-serif" font-size="13" lengthAdjust="spacing" textLength="21" x="355.5" y="359.62">call</text><text fill="#000000" font-family="monospace" font-size="13" lengthAdjust="spacing" textLength="224" x="380.5" y="359.1239">PATCH /consentRequests/{ID}/</text><text fill="#000000" font-family="sans-serif" font-size="13" lengthAdjust="spacing" textLength="55" x="326.5" y="375.22">recieved</text><text fill="#000000" font-family="monospace" font-size="13" lengthAdjust="spacing" textLength="248" x="385.5" y="374.724">PUT /consentRequests/{ID}/error</text><!--MD5=[7ace97f72eab4fe5b54867d6016c19a6]
@startuml
skinparam linetype polyline

title PISPOTPValidateModel

[*] - -> outboundServer: ""PATCH /consentRequests/{ID}/validate""
outboundServer - -> start: creation of state machine
start : validateOTP
start - -> OTPIsValid:\ncall ""PATCH /consentRequests/{ID}/""\nrecieved ""POST /CONSENTS""
start - -> errored:\ncall ""PATCH /consentRequests/{ID}/""\nrecieved ""PUT /consentRequests/{ID}/error""
@enduml

PlantUML version 1.2021.4(Sun Apr 04 08:49:39 UTC 2021)
(GPL source distribution)
Java Runtime: Java(TM) SE Runtime Environment
JVM: Java HotSpot(TM) 64-Bit Server VM
Default Encoding: UTF-8
Language: en
Country: US
--></g></svg>
